<?xml version="1.0" encoding="UTF-8" standalone="no"?>
<!-- Created with Inkscape (http://www.inkscape.org/) -->

<svg
   xmlns:dc="http://purl.org/dc/elements/1.1/"
   xmlns:cc="http://creativecommons.org/ns#"
   xmlns:rdf="http://www.w3.org/1999/02/22-rdf-syntax-ns#"
   xmlns:svg="http://www.w3.org/2000/svg"
   xmlns="http://www.w3.org/2000/svg"
   xmlns:sodipodi="http://sodipodi.sourceforge.net/DTD/sodipodi-0.dtd"
   xmlns:inkscape="http://www.inkscape.org/namespaces/inkscape"
   width="120.05258"
   height="120.52361"
   viewBox="0 0 31.763912 31.888537"
   version="1.1"
   id="svg8"
   inkscape:version="0.92.4 (5da689c313, 2019-01-14)"
   sodipodi:docname="the-okezie-blog-logo-light.svg"
   inkscape:export-filename="C:\Users\ODUMUKO\Desktop\bitmap.png"
   inkscape:export-xdpi="50.139999"
   inkscape:export-ydpi="50.139999">
  <defs
     id="defs2" />
  <sodipodi:namedview
     id="base"
     pagecolor="#ffffff"
     bordercolor="#666666"
     borderopacity="1.0"
     inkscape:pageopacity="0.0"
     inkscape:pageshadow="2"
     inkscape:zoom="2.4890159"
     inkscape:cx="46.41885"
     inkscape:cy="33.545904"
     inkscape:document-units="mm"
     inkscape:current-layer="layer1"
     showgrid="false"
     inkscape:snap-global="false"
     inkscape:window-width="1366"
     inkscape:window-height="715"
     inkscape:window-x="-8"
     inkscape:window-y="-8"
     inkscape:window-maximized="1"
     units="px"
     fit-margin-top="0"
     fit-margin-left="0"
     fit-margin-right="0"
     fit-margin-bottom="0" />
  <metadata
     id="metadata5">
    <rdf:RDF>
      <cc:Work
         rdf:about="">
        <dc:format>image/svg+xml</dc:format>
        <dc:type
           rdf:resource="http://purl.org/dc/dcmitype/StillImage" />
        <dc:title></dc:title>
      </cc:Work>
    </rdf:RDF>
  </metadata>
  <g
     inkscape:label="Layer 1"
     inkscape:groupmode="layer"
     id="layer1"
     transform="translate(-2.2931347,-251.35804)">
    <path
       style="opacity:1;vector-effect:none;fill:none;fill-opacity:1;fill-rule:evenodd;stroke:#ffffff;stroke-width:2.76471686;stroke-linecap:round;stroke-linejoin:round;stroke-miterlimit:4;stroke-dasharray:none;stroke-dashoffset:0;stroke-opacity:1;paint-order:normal"
       id="path815"
       d="m 27.739615,271.49133 a 11.144309,11.144309 0 0 1 -12.338671,3.76023 11.144309,11.144309 0 0 1 -7.6231278,-10.40529 11.144309,11.144309 0 0 1 7.3049558,-10.63108 11.144309,11.144309 0 0 1 12.446747,3.38537 l -8.608668,7.07717 z"
       sodipodi:type="arc"
       sodipodi:start="0.6578241"
       sodipodi:end="5.5951138"
       sodipodi:ry="11.144309"
       sodipodi:rx="11.144309"
       sodipodi:cy="264.67773"
       sodipodi:cx="18.920851" />
    <circle
       id="path817"
       style="opacity:1;vector-effect:none;fill:none;fill-opacity:1;fill-rule:evenodd;stroke:#ffffff;stroke-width:3.19382143;stroke-linecap:round;stroke-linejoin:round;stroke-miterlimit:4;stroke-dasharray:none;stroke-dashoffset:0;stroke-opacity:1;paint-order:normal"
       transform="rotate(-175.94891)"
       cx="-37.57159"
       cy="-262.67987"
       r="6.813817" />
    <circle
       transform="rotate(-175.94891)"
       style="opacity:1;vector-effect:none;fill:#ffffff;fill-opacity:1;fill-rule:evenodd;stroke:#ffffff;stroke-width:1.34082103;stroke-linecap:round;stroke-linejoin:round;stroke-miterlimit:4;stroke-dasharray:none;stroke-dashoffset:0;stroke-opacity:1;paint-order:normal"
       id="path847"
       cx="-37.571541"
       cy="-262.67987"
       r="2.8606567" />
    <g
       aria-label="The"
       style="font-style:normal;font-variant:normal;font-weight:normal;font-stretch:normal;font-size:4.35539436px;line-height:7.25;font-family:'Comic Sans MS';-inkscape-font-specification:'Comic Sans MS, Normal';font-variant-ligatures:normal;font-variant-caps:normal;font-variant-numeric:normal;font-feature-settings:normal;text-align:start;letter-spacing:0px;word-spacing:0px;writing-mode:lr-tb;text-anchor:start;fill:#ffffff;fill-opacity:1;stroke:none;stroke-width:0.21776953"
       id="text920"
       transform="matrix(0.70096599,0,0,0.70096599,0.29724066,76.976908)">
      <path
         d="m 13.035668,289.24427 q -0.157372,0 -0.484877,-0.0255 -0.318999,-0.0234 -0.484878,-0.0213 H 11.91492 q 0.0064,0.29348 0.05742,0.95274 0.04679,0.61461 0.04679,0.95487 0,0.0744 0.01489,0.22543 0.01489,0.15099 0.01489,0.22755 0,0.14461 -0.04679,0.24882 -0.05955,0.14036 -0.185019,0.14036 -0.08507,0 -0.15312,-0.0596 -0.06805,-0.0595 -0.06805,-0.15312 0,-0.0319 0.01063,-0.0957 0.01063,-0.0638 0.01063,-0.0957 0,-0.10421 -0.01489,-0.31262 -0.01276,-0.20842 -0.01276,-0.31475 0,-0.30411 -0.04891,-0.85492 -0.05104,-0.59546 -0.05742,-0.85491 l -0.193526,0.002 q -0.465738,0 -0.73157,-0.0681 -0.17226,-0.0447 -0.17226,-0.21054 0,-0.0872 0.05529,-0.15312 0.0638,-0.0744 0.163753,-0.0681 0.07443,0.004 0.340265,0.0383 0.212666,0.0255 0.344519,0.0255 0.127599,0 0.387051,-0.004 0.259453,-0.006 0.387052,-0.006 0.163753,0 0.484878,0.0234 0.323252,0.0234 0.487004,0.0234 0.09145,0 0.15312,0.0638 0.06167,0.0617 0.06167,0.15525 0,0.0915 -0.06167,0.15525 -0.06167,0.0617 -0.15312,0.0617 z"
         style="font-style:normal;font-variant:normal;font-weight:normal;font-stretch:normal;font-size:4.35539436px;font-family:'Comic Sans MS';-inkscape-font-specification:'Comic Sans MS, Normal';font-variant-ligatures:normal;font-variant-caps:normal;font-variant-numeric:normal;font-feature-settings:normal;text-align:start;writing-mode:lr-tb;text-anchor:start;stroke-width:0.21776953;fill:#ffffff"
         id="path853"
         inkscape:connector-curvature="0" />
      <path
         d="m 15.175086,292.06209 q -0.150993,0 -0.197779,-0.16163 -0.04891,-0.17438 -0.08932,-0.49551 -0.03828,-0.30836 -0.03828,-0.50614 0,-0.0553 0.0043,-0.16801 0.0064,-0.11271 0.0064,-0.168 0,-0.39982 -0.199906,-0.39982 -0.270086,0 -0.482751,0.24457 -0.10846,0.12547 -0.297733,0.4785 0,0.81025 -0.06805,0.95912 -0.05955,0.13185 -0.185019,0.13185 -0.08719,0 -0.153119,-0.0595 -0.06593,-0.0596 -0.06593,-0.14462 0,-0.0298 0.01914,-0.0936 0.01701,-0.0532 0.02339,-0.31049 l 0.0064,-0.31475 0.0064,-1.56309 q 0.01489,-0.2637 0.01489,-0.35515 0,-0.10846 -0.02127,-0.20416 -0.01914,-0.0978 -0.01914,-0.20203 0,-0.0893 0.06167,-0.14674 0.06167,-0.0596 0.150992,-0.0596 0.174386,0 0.20416,0.18715 0.03403,0.20628 0.03403,0.37216 0,0.2233 -0.01489,0.46574 -0.01276,0.23181 -0.01063,0.46574 l 0.0021,0.18714 q 0.174386,-0.23393 0.372165,-0.34877 0.199906,-0.11696 0.423205,-0.11696 0.353025,0 0.484878,0.22968 0.09357,0.16162 0.106333,0.54442 l 0.01701,0.40619 0.04253,0.44235 q 0.02977,0.24881 0.07231,0.43809 0.0085,0.0361 0.0085,0.0617 0,0.0872 -0.0638,0.14461 -0.0638,0.0596 -0.153119,0.0596 z"
         style="font-style:normal;font-variant:normal;font-weight:normal;font-stretch:normal;font-size:4.35539436px;font-family:'Comic Sans MS';-inkscape-font-specification:'Comic Sans MS, Normal';font-variant-ligatures:normal;font-variant-caps:normal;font-variant-numeric:normal;font-feature-settings:normal;text-align:start;writing-mode:lr-tb;text-anchor:start;stroke-width:0.21776953;fill:#ffffff"
         id="path855"
         inkscape:connector-curvature="0" />
      <path
         d="m 16.906185,292.02806 q -0.480624,0 -0.778357,-0.24031 -0.325378,-0.26583 -0.325378,-0.74433 0,-0.55293 0.267959,-0.92722 0.291352,-0.40832 0.778356,-0.40832 0.353025,0 0.576324,0.11909 0.274339,0.14674 0.274339,0.45085 0,0.21267 -0.240312,0.38706 -0.106333,0.0766 -0.450851,0.23818 l -0.812383,0.38493 q 0.119092,0.17651 0.295605,0.26583 0.178639,0.0893 0.414698,0.0893 0.146739,0 0.344519,-0.0553 0.250945,-0.0702 0.323251,-0.18289 0.07231,-0.11484 0.155246,-0.11484 0.07443,0 0.131853,0.0574 0.05955,0.0553 0.05955,0.12973 0,0.23606 -0.380672,0.40619 -0.325379,0.14461 -0.633744,0.14461 z m -0.05742,-1.93738 q -0.259452,0 -0.431711,0.20203 -0.172259,0.19991 -0.257326,0.60397 l 0.652884,-0.31049 q 0.384925,-0.18715 0.548678,-0.32538 -0.182893,-0.17013 -0.512525,-0.17013 z"
         style="font-style:normal;font-variant:normal;font-weight:normal;font-stretch:normal;font-size:4.35539436px;font-family:'Comic Sans MS';-inkscape-font-specification:'Comic Sans MS, Normal';font-variant-ligatures:normal;font-variant-caps:normal;font-variant-numeric:normal;font-feature-settings:normal;text-align:start;writing-mode:lr-tb;text-anchor:start;stroke-width:0.21776953;fill:#ffffff"
         id="path857"
         inkscape:connector-curvature="0" />
    </g>
    <g
       aria-label="Okezie Blog"
       style="font-style:normal;font-variant:normal;font-weight:normal;font-stretch:normal;font-size:4.35539436px;line-height:7.25;font-family:'Comic Sans MS';-inkscape-font-specification:'Comic Sans MS, Normal';font-variant-ligatures:normal;font-variant-caps:normal;font-variant-numeric:normal;font-feature-settings:normal;text-align:start;letter-spacing:0px;word-spacing:0px;writing-mode:lr-tb;text-anchor:start;fill:#ffffff;fill-opacity:1;stroke:none;stroke-width:0.21776953"
       id="text924"
       transform="matrix(0.70096599,0,0,0.70096599,0.29724066,76.976908)">
      <path
         d="m 20.151498,292.0628 q -0.599717,0 -1.016542,-0.3594 -0.442345,-0.3828 -0.442345,-0.98677 0,-0.73583 0.435965,-1.33767 0.487005,-0.66777 1.214321,-0.66777 0.699671,0 1.039936,0.31474 0.355152,0.32751 0.355152,1.03356 0,0.73582 -0.399812,1.32703 -0.459358,0.67628 -1.186675,0.67628 z m 0.191399,-2.91565 q -0.521031,0 -0.882562,0.51891 -0.333886,0.47637 -0.333886,1.05057 0,0.41044 0.304112,0.66777 0.291352,0.24244 0.720937,0.24244 0.516778,0 0.85279,-0.52103 0.299859,-0.46574 0.299859,-1.04632 0,-0.50827 -0.227553,-0.71456 -0.216919,-0.19778 -0.733697,-0.19778 z"
         style="font-style:normal;font-variant:normal;font-weight:normal;font-stretch:normal;font-size:4.35539436px;font-family:'Comic Sans MS';-inkscape-font-specification:'Comic Sans MS, Normal';font-variant-ligatures:normal;font-variant-caps:normal;font-variant-numeric:normal;font-feature-settings:normal;text-align:start;writing-mode:lr-tb;text-anchor:start;fill:#ffffff;fill-opacity:1;stroke-width:0.21776953"
         id="path832"
         inkscape:connector-curvature="0" />
      <path
         d="m 23.992242,292.02027 q -0.116967,0 -0.180766,-0.12335 -0.110586,-0.21479 -0.333885,-0.50827 l -0.376419,-0.51252 q -0.123346,0.0978 -0.382798,0.27434 -0.02339,0.32963 -0.02339,0.64225 0,0.0957 -0.05955,0.15524 -0.05742,0.0596 -0.148866,0.0596 -0.214792,0 -0.214792,-0.28923 0,-0.17651 0.02339,-0.52741 0.02552,-0.35302 0.02552,-0.52954 0,-0.32325 0.0085,-0.73795 0.01063,-0.41682 0.01063,-0.73582 0,-0.0957 -0.01063,-0.22543 -0.0085,-0.12972 -0.0085,-0.22542 0,-0.0957 0.05742,-0.15525 0.05955,-0.0595 0.150992,-0.0595 0.09145,0 0.148866,0.0595 0.05955,0.0596 0.05955,0.15525 0,0.0978 0.01063,0.2318 0.01063,0.13186 0.01063,0.22968 l -0.01489,0.68479 q -0.01063,0.37004 -0.0064,0.74007 0.289225,-0.22117 0.557184,-0.48487 l 0.467865,-0.48276 q 0.07018,-0.0723 0.150992,-0.0723 0.08294,0 0.148866,0.0659 0.06805,0.0659 0.06805,0.15312 0,0.0723 -0.06167,0.14249 -0.261579,0.30624 -0.644377,0.65714 l 0.463611,0.63161 q 0.325379,0.44448 0.325379,0.57846 0,0.0851 -0.06805,0.14673 -0.06593,0.0617 -0.153119,0.0617 z"
         style="font-style:normal;font-variant:normal;font-weight:normal;font-stretch:normal;font-size:4.35539436px;font-family:'Comic Sans MS';-inkscape-font-specification:'Comic Sans MS, Normal';font-variant-ligatures:normal;font-variant-caps:normal;font-variant-numeric:normal;font-feature-settings:normal;text-align:start;writing-mode:lr-tb;text-anchor:start;fill:#ffffff;fill-opacity:1;stroke-width:0.21776953"
         id="path834"
         inkscape:connector-curvature="0" />
      <path
         d="m 25.570221,292.0309 q -0.480624,0 -0.778356,-0.24031 -0.325379,-0.26583 -0.325379,-0.74433 0,-0.55293 0.267959,-0.92722 0.291352,-0.40832 0.778357,-0.40832 0.353025,0 0.576324,0.11909 0.274339,0.14674 0.274339,0.45085 0,0.21267 -0.240313,0.38705 -0.106333,0.0766 -0.450851,0.23819 l -0.812383,0.38492 q 0.119093,0.17652 0.295605,0.26584 0.178639,0.0893 0.414698,0.0893 0.14674,0 0.344519,-0.0553 0.250945,-0.0702 0.323252,-0.18289 0.07231,-0.11484 0.155246,-0.11484 0.07443,0 0.131853,0.0574 0.05955,0.0553 0.05955,0.12973 0,0.23606 -0.380672,0.40619 -0.325378,0.14461 -0.633744,0.14461 z m -0.05742,-1.93738 q -0.259453,0 -0.431712,0.20203 -0.172259,0.1999 -0.257325,0.60397 l 0.652883,-0.31049 q 0.384925,-0.18715 0.548678,-0.32538 -0.182893,-0.17013 -0.512524,-0.17013 z"
         style="font-style:normal;font-variant:normal;font-weight:normal;font-stretch:normal;font-size:4.35539436px;font-family:'Comic Sans MS';-inkscape-font-specification:'Comic Sans MS, Normal';font-variant-ligatures:normal;font-variant-caps:normal;font-variant-numeric:normal;font-feature-settings:normal;text-align:start;writing-mode:lr-tb;text-anchor:start;fill:#ffffff;fill-opacity:1;stroke-width:0.21776953"
         id="path836"
         inkscape:connector-curvature="0" />
      <path
         d="m 28.721928,290.21261 q -0.189273,0.22755 -0.484878,0.65926 -0.342392,0.50189 -0.501891,0.71031 0.223299,-0.0106 0.389178,-0.0106 0.08294,0 0.246692,0.0319 0.163753,0.0319 0.246693,0.0319 0.09357,0 0.150992,0.0617 0.05955,0.0595 0.05955,0.15312 0,0.0957 -0.05955,0.15524 -0.05742,0.0596 -0.150992,0.0596 -0.08294,0 -0.246693,-0.0319 -0.163752,-0.0319 -0.246692,-0.0319 -0.478498,0 -0.908083,0.0872 -0.04466,0.009 -0.07869,0.009 -0.206286,0 -0.206286,-0.18077 0,-0.10633 0.106333,-0.20416 0.555058,-0.50189 1.207942,-1.56309 -0.282846,0.017 -0.410445,0.017 -0.314746,0 -0.646504,-0.0489 -0.189273,-0.0276 -0.189273,-0.21054 0,-0.0936 0.05742,-0.15525 0.05742,-0.0638 0.144613,-0.0638 0.104206,0 0.314745,0.0255 0.210539,0.0234 0.318999,0.0234 0.144612,0 0.433838,-0.0191 0.289225,-0.0213 0.433838,-0.0213 0.180766,0 0.180766,0.14887 0,0.17226 -0.161626,0.36791 z"
         style="font-style:normal;font-variant:normal;font-weight:normal;font-stretch:normal;font-size:4.35539436px;font-family:'Comic Sans MS';-inkscape-font-specification:'Comic Sans MS, Normal';font-variant-ligatures:normal;font-variant-caps:normal;font-variant-numeric:normal;font-feature-settings:normal;text-align:start;writing-mode:lr-tb;text-anchor:start;fill:#ffffff;fill-opacity:1;stroke-width:0.21776953"
         id="path838"
         inkscape:connector-curvature="0" />
      <path
         d="m 29.721457,289.24073 q -0.10208,0 -0.176513,-0.0723 -0.07443,-0.0723 -0.07443,-0.17439 0,-0.10208 0.07443,-0.17438 0.07443,-0.0723 0.176513,-0.0723 0.102079,0 0.174386,0.0723 0.07443,0.0723 0.07443,0.17438 0,0.10208 -0.07443,0.17439 -0.07231,0.0723 -0.174386,0.0723 z m 0.0957,1.72684 q 0,0.1276 0.0064,0.3828 0.0085,0.25307 0.0085,0.38067 0,0.0936 -0.05742,0.15312 -0.05742,0.0596 -0.150992,0.0596 -0.09145,0 -0.150993,-0.0596 -0.05742,-0.0595 -0.05742,-0.15312 0,-0.1276 -0.0085,-0.38067 -0.0064,-0.2552 -0.0064,-0.3828 0,-0.1999 0.02127,-0.49764 0.02127,-0.29985 0.02127,-0.49976 0,-0.0957 0.05742,-0.15525 0.05955,-0.0595 0.150992,-0.0595 0.09145,0 0.148866,0.0595 0.05955,0.0596 0.05955,0.15525 0,0.19991 -0.02127,0.49976 -0.02127,0.29774 -0.02127,0.49764 z"
         style="font-style:normal;font-variant:normal;font-weight:normal;font-stretch:normal;font-size:4.35539436px;font-family:'Comic Sans MS';-inkscape-font-specification:'Comic Sans MS, Normal';font-variant-ligatures:normal;font-variant-caps:normal;font-variant-numeric:normal;font-feature-settings:normal;text-align:start;writing-mode:lr-tb;text-anchor:start;fill:#ffffff;fill-opacity:1;stroke-width:0.21776953"
         id="path840"
         inkscape:connector-curvature="0" />
      <path
         d="m 31.533369,292.0309 q -0.480625,0 -0.778357,-0.24031 -0.325378,-0.26583 -0.325378,-0.74433 0,-0.55293 0.267959,-0.92722 0.291352,-0.40832 0.778356,-0.40832 0.353025,0 0.576324,0.11909 0.274339,0.14674 0.274339,0.45085 0,0.21267 -0.240312,0.38705 -0.106333,0.0766 -0.450851,0.23819 l -0.812384,0.38492 q 0.119093,0.17652 0.295606,0.26584 0.178639,0.0893 0.414698,0.0893 0.146739,0 0.344518,-0.0553 0.250946,-0.0702 0.323252,-0.18289 0.07231,-0.11484 0.155246,-0.11484 0.07443,0 0.131853,0.0574 0.05955,0.0553 0.05955,0.12973 0,0.23606 -0.380672,0.40619 -0.325379,0.14461 -0.633744,0.14461 z m -0.05742,-1.93738 q -0.259452,0 -0.431711,0.20203 -0.172259,0.1999 -0.257326,0.60397 l 0.652884,-0.31049 q 0.384925,-0.18715 0.548678,-0.32538 -0.182893,-0.17013 -0.512525,-0.17013 z"
         style="font-style:normal;font-variant:normal;font-weight:normal;font-stretch:normal;font-size:4.35539436px;font-family:'Comic Sans MS';-inkscape-font-specification:'Comic Sans MS, Normal';font-variant-ligatures:normal;font-variant-caps:normal;font-variant-numeric:normal;font-feature-settings:normal;text-align:start;writing-mode:lr-tb;text-anchor:start;fill:#ffffff;fill-opacity:1;stroke-width:0.21776953"
         id="path842"
         inkscape:connector-curvature="0" />
      <path
         d="m 35.82071,291.84801 q -0.478497,0.18714 -1.222828,0.18714 -0.09145,0 -0.174385,-0.0872 -0.08081,-0.0851 -0.08081,-0.17651 v -0.61886 q 0,-0.30411 0.03828,-0.86767 0.04253,-0.60823 0.04679,-0.88044 -0.0021,-0.19565 0.02339,-0.5827 0.01489,-0.10634 0.07018,-0.14036 0.289225,-0.0893 0.657137,-0.0893 0.374292,0 0.71881,0.2552 0.397685,0.29347 0.397685,0.72519 0,0.54655 -0.425331,0.86129 0.318998,0.13611 0.476371,0.30199 0.159499,0.16588 0.159499,0.36153 0,0.25732 -0.278592,0.49764 -0.193526,0.17013 -0.406192,0.25307 z m -0.64225,-2.82208 q -0.231806,0 -0.325379,0.0149 l -0.0043,0.37217 -0.04253,0.82301 q 0.301985,0.0255 0.323252,0.0234 0.321125,-0.0255 0.525284,-0.19991 0.219046,-0.18927 0.219046,-0.487 0,-0.20204 -0.223299,-0.3743 -0.223299,-0.17226 -0.472118,-0.17226 z m 0.238186,1.70346 -0.225426,-0.0362 q -0.02765,0 -0.08507,0.004 -0.05529,0.002 -0.08507,0.002 -0.114839,0 -0.244565,-0.0191 -0.01276,0.26796 -0.01276,0.4785 v 0.44022 q 0.557184,-0.0191 0.908082,-0.15737 0.148866,-0.0574 0.284973,-0.17864 0.129726,-0.11059 0.129726,-0.16588 0,-0.1 -0.272213,-0.22543 -0.204159,-0.0957 -0.397684,-0.14248 z"
         style="font-style:normal;font-variant:normal;font-weight:normal;font-stretch:normal;font-size:4.35539436px;font-family:'Comic Sans MS';-inkscape-font-specification:'Comic Sans MS, Normal';font-variant-ligatures:normal;font-variant-caps:normal;font-variant-numeric:normal;font-feature-settings:normal;text-align:start;writing-mode:lr-tb;text-anchor:start;fill:#ffffff;fill-opacity:1;stroke-width:0.21776953"
         id="path844"
         inkscape:connector-curvature="0" />
      <path
         d="m 37.51991,290.26152 -0.0319,1.05695 q 0,0.16801 -0.01701,0.49339 -0.02127,0.21266 -0.208413,0.21266 -0.208412,0 -0.208412,-0.21692 0,-0.25732 0.02339,-0.77197 0.02339,-0.51678 0.02339,-0.77411 0,-0.33601 0.01063,-0.76772 0.01063,-0.43384 0.01063,-0.76985 0,-0.21267 0.208412,-0.21267 0.210539,0 0.210539,0.21267 0,0.33601 -0.01063,0.76985 -0.01063,0.43171 -0.01063,0.76772 z"
         style="font-style:normal;font-variant:normal;font-weight:normal;font-stretch:normal;font-size:4.35539436px;font-family:'Comic Sans MS';-inkscape-font-specification:'Comic Sans MS, Normal';font-variant-ligatures:normal;font-variant-caps:normal;font-variant-numeric:normal;font-feature-settings:normal;text-align:start;writing-mode:lr-tb;text-anchor:start;fill:#ffffff;fill-opacity:1;stroke-width:0.21776953"
         id="path846"
         inkscape:connector-curvature="0" />
      <path
         d="m 38.968163,292.05855 q -0.357279,0 -0.614604,-0.26371 -0.287099,-0.29348 -0.301985,-0.78899 -0.01276,-0.48062 0.242439,-0.84641 0.297732,-0.43171 0.829396,-0.43171 0.425331,0 0.644377,0.38918 0.174386,0.31474 0.168006,0.75709 -0.0064,0.47212 -0.246692,0.806 -0.272212,0.37855 -0.720937,0.37855 z m 0.127599,-1.89911 q -0.312618,-0.002 -0.487004,0.29773 -0.138233,0.24032 -0.138233,0.54868 0,0.30837 0.168006,0.48063 0.140359,0.14248 0.329632,0.14248 0.221172,0 0.380672,-0.16162 0.180765,-0.17864 0.191399,-0.48275 0.02977,-0.82302 -0.444472,-0.82515 z"
         style="font-style:normal;font-variant:normal;font-weight:normal;font-stretch:normal;font-size:4.35539436px;font-family:'Comic Sans MS';-inkscape-font-specification:'Comic Sans MS, Normal';font-variant-ligatures:normal;font-variant-caps:normal;font-variant-numeric:normal;font-feature-settings:normal;text-align:start;writing-mode:lr-tb;text-anchor:start;fill:#ffffff;fill-opacity:1;stroke-width:0.21776953"
         id="path848"
         inkscape:connector-curvature="0" />
      <path
         d="m 42.20919,291.01649 -0.04891,0.71455 q -0.01276,0.42533 -0.08719,0.69542 -0.0957,0.34452 -0.306239,0.50827 -0.255199,0.19778 -0.73795,0.19778 -0.282846,0 -0.474245,-0.0383 -0.267959,-0.0532 -0.267959,-0.22117 0,-0.18927 0.18502,-0.18927 0.07656,0 0.255199,0.0362 0.178639,0.0383 0.395558,0.034 0.408318,-0.006 0.563564,-0.39555 0.10208,-0.25946 0.10846,-0.7975 -0.11484,0.21267 -0.274339,0.319 -0.157373,0.10633 -0.361532,0.10633 -0.384925,0 -0.627364,-0.26158 -0.240312,-0.2637 -0.240312,-0.68265 0,-0.5742 0.329632,-0.9251 0.340265,-0.36153 0.927222,-0.36153 0.197779,0 0.331759,0.051 0.133979,0.051 0.204159,0.15312 0.227552,0.006 0.227552,0.25307 0,0.15099 -0.04466,0.40406 -0.04891,0.29348 -0.05742,0.39982 z m -0.682657,-0.92085 q -0.404065,0 -0.625238,0.2786 -0.197779,0.25094 -0.197779,0.63799 0,0.30837 0.116966,0.46361 0.116967,0.15525 0.350899,0.15525 0.214792,0 0.416825,-0.24244 0.182892,-0.2233 0.208412,-0.44234 0.04466,-0.22968 0.0957,-0.72094 -0.08507,-0.0659 -0.176513,-0.0978 -0.09145,-0.0319 -0.189272,-0.0319 z"
         style="font-style:normal;font-variant:normal;font-weight:normal;font-stretch:normal;font-size:4.35539436px;font-family:'Comic Sans MS';-inkscape-font-specification:'Comic Sans MS, Normal';font-variant-ligatures:normal;font-variant-caps:normal;font-variant-numeric:normal;font-feature-settings:normal;text-align:start;writing-mode:lr-tb;text-anchor:start;fill:#ffffff;fill-opacity:1;stroke-width:0.21776953"
         id="path850"
         inkscape:connector-curvature="0" />
    </g>
  </g>
</svg>
